<?xml version="1.0" encoding="utf-8"?>
<!-- Generator: Adobe Illustrator 16.0.0, SVG Export Plug-In . SVG Version: 6.00 Build 0)  -->
<!DOCTYPE svg PUBLIC "-//W3C//DTD SVG 1.0//EN" "http://www.w3.org/TR/2001/REC-SVG-20010904/DTD/svg10.dtd">
<svg version="1.0" id="Layer_1" xmlns="http://www.w3.org/2000/svg" xmlns:xlink="http://www.w3.org/1999/xlink" x="0px" y="0px"
	 width="392.98px" height="352.482px" viewBox="0 0 392.98 352.482" enable-background="new 0 0 392.98 352.482"
	 xml:space="preserve">
<g>
	<linearGradient id="SVGID_2_" gradientUnits="userSpaceOnUse" x1="-88.8428" y1="-64.8374" x2="274.2559" y2="190.0299">
		<stop  offset="0" style="stop-color:#F4F4E4"/>
		<stop  offset="0.0884" style="stop-color:#D5C1E0"/>
		<stop  offset="0.1838" style="stop-color:#B890DC"/>
		<stop  offset="0.2311" style="stop-color:#AC7DDA"/>
		<stop  offset="0.3111" style="stop-color:#A461C2"/>
		<stop  offset="0.4471" style="stop-color:#98379D"/>
		<stop  offset="0.5168" style="stop-color:#93278F"/>
		<stop  offset="1" style="stop-color:#D35962"/>
	</linearGradient>
	<path fill="url(#SVGID_2_)" d="M124.244,171.139l-18.436,1.945l-10.615-46.101l-12.611,33.22l-21.438,2.03l-18-124l20.04-3.405
		L76.67,139.225l21.066-88.854l7.24,1.028l7.041,90.542l18.186-105.006l16.588,1.031L124.244,171.139z M145.967,110.042
		c-0.168-32.981,9.379-43.722,12.492-49.197c5.441-9.558,33.639-14.393,39.436-9.396c5.793,4.996,19.154,31.072,16.125,53.039
		c-3.033,21.965-17.514,40.645-32.963,39.17C181.057,143.658,146.133,143.029,145.967,110.042z M164.891,109.159
		c2.254,8.384,2.742,9.449,25.6,7.776c22.859-1.669-0.148-42.26-5.059-43.594s-19.213,5.504-19.213,5.504
		S162.637,100.777,164.891,109.159z M332.465,16.613L314.1,17.477l-27.08,105.232l-10.542-80.476l-16.208,1.964l-20.186,83.607
		l0.394-110.239l-19.669,0.791l5.669,142.543l16.94,2.528l21.758-82.169l6.779,87.288l16.713-0.967L332.465,16.613z
		 M117.404,195.242c-0.281-0.241-0.607-0.349-0.977-0.322l-1.789,0.13l0.652,8.985l1.787-0.129c0.369-0.027,0.678-0.18,0.92-0.459
		c0.24-0.279,0.35-0.605,0.32-0.979l-0.457-6.307C117.836,195.791,117.682,195.484,117.404,195.242z M178.906,193.088L178.74,205.5
		l2.566-0.186l-1.953-12.259L178.906,193.088z M235.838,186.665c-0.279-0.241-0.605-0.349-0.977-0.321l-1.785,0.129l0.689,9.544
		l1.787-0.13c0.371-0.027,0.68-0.179,0.92-0.459c0.24-0.279,0.35-0.604,0.322-0.977l-0.496-6.865
		C236.271,187.215,236.117,186.907,235.838,186.665z M68.26,198.408c-0.279-0.241-0.605-0.348-0.977-0.321l-0.447,0.032
		c-0.371,0.027-0.68,0.181-0.92,0.459c-0.242,0.279-0.35,0.605-0.322,0.977l1.424,19.646c0.025,0.373,0.18,0.68,0.459,0.92
		c0.279,0.244,0.604,0.35,0.977,0.323l0.445-0.032c0.373-0.027,0.68-0.18,0.922-0.46c0.24-0.278,0.348-0.604,0.322-0.978
		l-1.424-19.646C68.693,198.957,68.539,198.65,68.26,198.408z M348.768,217.794L39.477,239.508l-1.598-55.62l311.264-24.214
		L348.768,217.794z M76.693,218.781l-1.463-20.205c-0.07-0.967-0.324-1.863-0.758-2.694c-0.434-0.827-0.99-1.536-1.668-2.124
		c-0.68-0.586-1.459-1.033-2.342-1.344s-1.809-0.43-2.775-0.36l-2.121,0.153c-0.967,0.07-1.865,0.322-2.693,0.756
		c-0.83,0.435-1.537,0.99-2.125,1.67c-0.586,0.678-1.035,1.459-1.344,2.34c-0.311,0.885-0.432,1.809-0.361,2.776l1.463,20.204
		c0.07,0.968,0.322,1.867,0.756,2.695c0.436,0.829,0.99,1.537,1.67,2.123c0.678,0.588,1.457,1.035,2.342,1.345
		c0.881,0.311,1.807,0.431,2.775,0.36l2.119-0.154c0.969-0.068,1.865-0.32,2.695-0.756c0.83-0.433,1.537-0.988,2.125-1.668
		c0.586-0.678,1.033-1.459,1.344-2.342S76.764,219.749,76.693,218.781z M100.971,217.023l-1.887-26.064
		c-0.039-0.521-0.318-0.764-0.838-0.725l-4.969,0.359c-0.521,0.037-0.762,0.316-0.723,0.838l1.867,25.785
		c0.025,0.373-0.082,0.699-0.324,0.977c-0.24,0.281-0.549,0.433-0.92,0.46l-0.447,0.032c-0.371,0.027-0.697-0.078-0.977-0.322
		c-0.279-0.24-0.432-0.547-0.459-0.92l-1.867-25.785c-0.037-0.521-0.318-0.764-0.838-0.727l-4.969,0.361
		c-0.521,0.037-0.762,0.316-0.723,0.838l1.887,26.064c0.07,0.968,0.322,1.866,0.756,2.695s0.99,1.537,1.668,2.123
		c0.678,0.588,1.459,1.035,2.344,1.345c0.881,0.311,1.807,0.43,2.773,0.36l2.121-0.154c0.967-0.07,1.865-0.321,2.695-0.756
		c0.828-0.434,1.537-0.988,2.123-1.668c0.586-0.678,1.035-1.459,1.346-2.342C100.92,218.916,101.041,217.991,100.971,217.023z
		 M127.348,221.005l-6.211-12.175c1.109-0.678,2.033-1.596,2.773-2.754c0.74-1.156,1.059-2.424,0.959-3.801l-0.496-6.865
		c-0.07-0.967-0.324-1.865-0.756-2.693c-0.436-0.828-0.992-1.536-1.67-2.123c-0.678-0.586-1.459-1.035-2.342-1.346
		s-1.809-0.43-2.773-0.36l-8.373,0.606c-0.521,0.037-0.762,0.316-0.725,0.838l2.311,31.926c0.039,0.521,0.299,0.764,0.783,0.729
		l4.967-0.36c0.559-0.04,0.818-0.32,0.781-0.841l-0.748-10.326l4.822,10.031c0.092,0.217,0.244,0.395,0.459,0.527
		c0.215,0.135,0.436,0.192,0.658,0.176l5.08-0.367C127.33,221.791,127.498,221.518,127.348,221.005z M165.412,218.248l-8.76-17.151
		l6.561-14.782c0.061-0.191,0.047-0.369-0.039-0.53c-0.088-0.162-0.242-0.235-0.465-0.219l-5.582,0.403
		c-0.521,0.039-0.857,0.287-1.012,0.746l-4.418,10.252l-0.709-9.768c-0.037-0.521-0.316-0.763-0.838-0.725l-4.967,0.359
		c-0.521,0.039-0.764,0.317-0.725,0.838l2.312,31.926c0.037,0.521,0.316,0.763,0.838,0.725l4.967-0.359
		c0.521-0.039,0.762-0.316,0.725-0.838l-0.533-7.367l0.818-1.855l4.746,8.971c0.088,0.18,0.229,0.33,0.426,0.445
		c0.195,0.119,0.404,0.168,0.627,0.15l5.525-0.4c0.225-0.016,0.385-0.109,0.484-0.286C165.494,218.607,165.5,218.43,165.412,218.248
		z M189.635,216.494l-6.498-31.623c-0.113-0.516-0.428-0.754-0.949-0.717l-7.367,0.533c-0.521,0.038-0.801,0.32-0.836,0.847
		l-1.875,32.229c-0.037,0.525,0.205,0.77,0.727,0.731l5.08-0.368c0.482-0.035,0.742-0.314,0.779-0.84l0.051-5.504l3.461-0.25
		l0.842,5.438c0.111,0.516,0.41,0.756,0.895,0.721l5.078-0.368C189.543,217.285,189.748,217.01,189.635,216.494z M219.271,214.348
		l-2.312-31.926c-0.037-0.521-0.316-0.764-0.836-0.725l-4.746,0.344c-0.223,0.016-0.412,0.113-0.566,0.293
		c-0.156,0.18-0.266,0.365-0.324,0.557l-3.166,17.51l-5.654-16.871c-0.088-0.181-0.221-0.349-0.4-0.504s-0.381-0.225-0.605-0.209
		l-4.742,0.344c-0.521,0.037-0.764,0.318-0.725,0.838l2.311,31.927c0.039,0.521,0.316,0.761,0.838,0.724l5.359-0.389
		c0.52-0.037,0.762-0.316,0.725-0.836l-1.076-14.848l4.646,13.018c0.086,0.181,0.188,0.266,0.299,0.258
		c0.113-0.008,0.197-0.107,0.26-0.299l2.721-13.551l1.074,14.848c0.039,0.521,0.318,0.762,0.84,0.724l5.357-0.388
		C219.068,215.146,219.309,214.869,219.271,214.348z M243.346,194.258l-0.537-7.424c-0.07-0.967-0.322-1.865-0.758-2.694
		c-0.434-0.828-0.99-1.536-1.668-2.123c-0.68-0.586-1.459-1.036-2.342-1.346s-1.807-0.431-2.775-0.36l-8.371,0.606
		c-0.521,0.038-0.764,0.317-0.725,0.838l2.312,31.927c0.035,0.52,0.314,0.761,0.836,0.723l4.969-0.359
		c0.52-0.037,0.762-0.316,0.725-0.836l-0.812-11.221l2.623-0.189c0.967-0.07,1.865-0.322,2.693-0.756
		c0.83-0.435,1.537-0.99,2.125-1.669c0.586-0.678,1.035-1.458,1.344-2.343C243.295,196.15,243.416,195.227,243.346,194.258z
		 M267.684,204.95l-1.887-26.065c-0.039-0.52-0.318-0.763-0.838-0.725l-4.967,0.359c-0.521,0.039-0.764,0.318-0.725,0.838
		l1.865,25.786c0.029,0.372-0.08,0.698-0.32,0.978c-0.242,0.279-0.551,0.432-0.922,0.459l-0.445,0.032
		c-0.373,0.026-0.699-0.079-0.979-0.321c-0.279-0.241-0.432-0.549-0.459-0.92l-1.867-25.787c-0.037-0.52-0.316-0.762-0.838-0.725
		l-4.967,0.359c-0.521,0.038-0.764,0.318-0.725,0.838l1.887,26.065c0.07,0.968,0.322,1.866,0.756,2.695s0.99,1.536,1.668,2.122
		c0.68,0.589,1.459,1.036,2.342,1.346c0.883,0.311,1.809,0.43,2.775,0.359l2.121-0.152c0.967-0.07,1.865-0.322,2.695-0.756
		c0.828-0.434,1.535-0.989,2.123-1.67c0.586-0.678,1.035-1.457,1.346-2.341C267.633,206.844,267.754,205.918,267.684,204.95z
		 M294.619,208.892l-2.311-31.927c-0.039-0.52-0.318-0.762-0.84-0.725l-4.967,0.359c-0.521,0.039-0.762,0.317-0.725,0.838
		l1.172,16.187l-6.98-15.821c-0.088-0.18-0.24-0.338-0.455-0.473c-0.217-0.133-0.436-0.192-0.658-0.177l-3.684,0.267
		c-0.521,0.039-0.762,0.318-0.725,0.838l2.312,31.927c0.037,0.521,0.316,0.763,0.838,0.724l4.967-0.359
		c0.521-0.037,0.762-0.316,0.725-0.837l-1.051-14.513l6.971,14.141c0.088,0.18,0.24,0.338,0.455,0.471
		c0.215,0.135,0.436,0.193,0.658,0.177l3.572-0.259C294.414,209.691,294.658,209.412,294.619,208.892z M319.033,201.23
		l-0.861-11.888c-0.039-0.52-0.318-0.763-0.84-0.725l-7.311,0.529l0.461,6.362l1.562-0.111l0.438,6.027
		c0.025,0.372-0.082,0.697-0.322,0.977c-0.242,0.281-0.551,0.432-0.922,0.459l-0.445,0.033c-0.373,0.026-0.699-0.08-0.979-0.322
		s-0.432-0.549-0.459-0.921l-1.422-19.646c-0.027-0.372,0.08-0.698,0.32-0.978c0.242-0.278,0.549-0.433,0.922-0.46l0.447-0.031
		c0.371-0.027,0.697,0.08,0.977,0.321c0.277,0.241,0.432,0.55,0.459,0.921l0.234,3.236c0.039,0.523,0.293,0.689,0.766,0.506
		l4.945-2.21c0.473-0.183,0.691-0.534,0.654-1.058l-0.09-1.227c-0.07-0.968-0.322-1.865-0.756-2.695
		c-0.434-0.828-0.99-1.536-1.67-2.123c-0.678-0.586-1.457-1.035-2.34-1.346c-0.885-0.309-1.809-0.43-2.775-0.359l-2.121,0.153
		c-0.969,0.07-1.867,0.322-2.695,0.757c-0.83,0.434-1.537,0.99-2.123,1.668c-0.588,0.68-1.037,1.459-1.346,2.342
		c-0.311,0.883-0.43,1.809-0.359,2.775l1.463,20.204c0.07,0.968,0.322,1.866,0.756,2.694c0.434,0.83,0.988,1.538,1.668,2.124
		c0.68,0.587,1.459,1.036,2.344,1.345c0.881,0.311,1.807,0.431,2.775,0.359l2.119-0.152c0.967-0.07,1.865-0.322,2.695-0.756
		c0.828-0.434,1.535-0.99,2.123-1.669c0.586-0.679,1.035-1.458,1.346-2.341S319.102,202.199,319.033,201.23z M326.627,185.252
		l2.076,11.631c0.111,0.518,0.41,0.758,0.895,0.723l2.344-0.17c0.482-0.035,0.742-0.314,0.779-0.844l0.381-11.81
		c0.02-0.226,0.02-0.485,0-0.784c-0.023-0.297-0.041-0.559-0.059-0.781l-1.066-14.734c-0.037-0.521-0.316-0.764-0.838-0.725
		l-5.023,0.363c-0.521,0.037-0.764,0.316-0.725,0.838l1.068,14.734c0.016,0.223,0.033,0.484,0.055,0.782
		S326.572,185.031,326.627,185.252z M334.797,203.568c-0.068-0.967-0.484-1.779-1.24-2.434c-0.76-0.656-1.623-0.949-2.588-0.879
		c-0.969,0.07-1.781,0.484-2.436,1.242c-0.658,0.758-0.951,1.621-0.879,2.588c0.07,0.968,0.482,1.781,1.242,2.435
		c0.758,0.655,1.619,0.948,2.588,0.878c0.967-0.07,1.779-0.484,2.436-1.242C334.574,205.4,334.869,204.537,334.797,203.568z"/>
	<g>
		<g>
			<path fill="#93278F" d="M29.399,259.509l3.539-0.42l1.562,32.523l-3.539,0.846l-6.901-19.689l0.982,21.139l-3.54,0.886
				l-1.562-34.088l3.54-0.46l6.901,20.04L29.399,259.509z"/>
			<path fill="#93278F" d="M37.95,277.821l-0.93-19.112l3.538-0.39l0.93,18.858c0.094,1.882,0.38,3.289,0.857,4.218
				s1.131,1.307,1.959,1.141c0.828-0.165,1.437-0.791,1.829-1.874c0.391-1.081,0.54-2.544,0.446-4.39l-0.93-18.493l3.539-0.355
				l0.93,18.24c0.138,2.688-0.043,5.06-0.544,7.129c-0.5,2.075-1.187,3.665-2.058,4.765c-0.872,1.107-1.847,1.785-2.923,2.027
				c-1.684,0.385-3.159-0.42-4.432-2.437C38.892,285.113,38.154,281.999,37.95,277.821z"/>
			<path fill="#93278F" d="M57.737,274.821l0.605,11.455l-3.539,0.751l-1.558-29.996l5.733-0.521
				c1.684-0.146,3.041,0.615,4.071,2.267c1.032,1.641,1.614,3.671,1.746,6.102c0.09,1.664-0.078,3.32-0.502,4.974
				c-0.425,1.658-1.199,2.905-2.323,3.745l4.195,11.069l-4.14,0.844l-3.876-10.756L57.737,274.821z M57.074,262.211l0.375,7.135
				l2.194-0.307c0.538-0.075,0.944-0.451,1.221-1.132c0.276-0.678,0.388-1.535,0.332-2.575c-0.056-1.038-0.261-1.872-0.613-2.503
				c-0.352-0.632-0.791-0.918-1.314-0.861L57.074,262.211z"/>
			<path fill="#93278F" d="M67.402,261.111l-0.289-5.276l11.466-0.823l0.289,5.021l-3.974,0.356l1.269,22.323l-3.539,0.679
				l-1.269-22.669L67.402,261.111z"/>
			<path fill="#93278F" d="M82.593,270.729l-0.93-15.914l3.539-0.21l0.93,15.659c0.094,1.562,0.379,2.734,0.856,3.513
				c0.479,0.776,1.131,1.1,1.959,0.977s1.438-0.63,1.829-1.519c0.391-0.884,0.54-2.089,0.446-3.614l-0.93-15.296l3.539-0.175
				l0.93,15.041c0.138,2.216-0.043,4.164-0.544,5.86c-0.5,1.701-1.186,3.001-2.058,3.896c-0.872,0.904-1.847,1.452-2.923,1.64
				c-1.683,0.299-3.159-0.386-4.432-2.074C83.534,276.805,82.797,274.206,82.593,270.729z"/>
			<path fill="#93278F" d="M102.381,268.661l0.605,9.371l-3.54,0.571l-1.558-24.64l5.733-0.228c1.684-0.061,3.041,0.607,4.071,1.986
				c1.032,1.367,1.614,3.035,1.746,5.014c0.09,1.353-0.078,2.694-0.502,4.025c-0.425,1.338-1.199,2.334-2.323,2.992l4.195,9.068
				l-4.14,0.633l-3.876-8.84L102.381,268.661z M101.718,258.332l0.375,5.846l2.193-0.194c0.538-0.049,0.945-0.344,1.221-0.892
				c0.276-0.546,0.388-1.241,0.332-2.09c-0.056-0.848-0.261-1.533-0.612-2.058c-0.353-0.526-0.792-0.773-1.315-0.743
				L101.718,258.332z"/>
			<path fill="#93278F" d="M114.307,276.305l-1.558-22.856l3.54-0.086l1.558,22.432L114.307,276.305z"/>
			<path fill="#93278F" d="M129.884,253.108l3.538-0.016l1.562,20.432l-3.538,0.441l-6.902-12.759l0.982,13.529l-3.54,0.479
				l-1.562-21.996l3.54-0.054l6.902,13.11L129.884,253.108z"/>
			<path fill="#93278F" d="M140.226,270.212c-1.592-1.759-2.504-4.129-2.734-7.084c-0.23-2.964,0.3-5.437,1.592-7.384
				c1.291-1.915,2.979-2.853,5.062-2.831c1.614,0.021,3.095,0.598,4.443,1.715c1.347,1.102,2.352,2.608,3.01,4.52l-4.222,0.098
				c-0.667-1.367-1.606-2.048-2.82-2.03c-1.215,0.021-2.129,0.544-2.745,1.578c-0.616,1.042-0.854,2.421-0.719,4.131
				c0.137,1.706,0.593,3.044,1.371,4.004c0.779,0.951,1.754,1.372,2.927,1.272c0.842-0.071,1.505-0.4,1.992-0.986
				c0.485-0.582,0.781-1.33,0.885-2.245l-4.099,0.264l-0.289-3.555l7.907-0.315l0.289,3.379c-0.121,1.676-0.713,3.279-1.776,4.823
				c-0.507,0.753-1.159,1.393-1.957,1.917c-0.798,0.53-1.666,0.85-2.604,0.953C143.656,272.669,141.817,271.938,140.226,270.212z"/>
		</g>
	</g>
	<g>
		<g>
			<path fill="#93278F" d="M278.824,243.669c-0.45,0.043-0.808,0.236-1.073,0.572c-0.267,0.338-0.378,0.797-0.336,1.379
				c0.042,0.584,0.209,1.046,0.503,1.385c0.293,0.341,0.661,0.596,1.104,0.765c0.442,0.17,0.935,0.33,1.474,0.478
				c0.54,0.151,1.08,0.338,1.617,0.569c0.538,0.23,1.035,0.529,1.491,0.896c0.455,0.368,0.84,0.906,1.155,1.609
				c0.314,0.708,0.507,1.565,0.574,2.568c0.117,1.758-0.293,3.256-1.229,4.478c-0.937,1.198-2.237,1.748-3.904,1.661
				c-1.666-0.091-3.048-0.692-4.143-1.783c-1.095-1.071-1.71-2.535-1.849-4.406l3.84,0.008c0.207,1.553,0.869,2.344,1.98,2.365
				c0.52,0.01,0.915-0.169,1.185-0.535c0.269-0.368,0.385-0.84,0.345-1.413c-0.039-0.57-0.205-1.035-0.498-1.394
				c-0.291-0.354-0.659-0.632-1.103-0.831c-0.444-0.195-0.936-0.377-1.476-0.54s-1.08-0.366-1.617-0.607
				c-0.539-0.24-1.037-0.529-1.49-0.865c-0.456-0.334-0.84-0.819-1.156-1.456c-0.315-0.633-0.505-1.388-0.571-2.267
				c-0.129-1.723,0.28-3.15,1.229-4.302c0.948-1.172,2.222-1.871,3.818-2.082c1.596-0.213,2.921,0.099,3.973,0.949
				c1.053,0.87,1.674,2.385,1.861,4.538l-3.924,0.324c-0.106-0.707-0.317-1.241-0.633-1.598
				C279.657,243.779,279.274,243.624,278.824,243.669z"/>
			<path fill="#93278F" d="M290.8,257.347c-1.604-2.1-2.509-4.709-2.714-7.856c-0.206-3.136,0.359-5.791,1.695-8.011
				c1.336-2.271,3.068-3.589,5.199-3.92c2.131-0.338,3.992,0.484,5.582,2.511c1.589,2.078,2.486,4.906,2.692,8.451
				c0.205,3.556-0.356,6.524-1.685,8.859c-1.33,2.282-3.056,3.379-5.18,3.319C294.268,260.634,292.404,259.501,290.8,257.347z
				 M298.808,253.712c0.638-1.241,0.896-2.887,0.775-4.925c-0.121-2.033-0.574-3.622-1.356-4.754
				c-0.782-1.118-1.768-1.603-2.956-1.464c-1.188,0.137-2.103,0.822-2.739,2.045c-0.638,1.209-0.896,2.764-0.774,4.673
				c0.121,1.913,0.573,3.435,1.355,4.571c0.782,1.149,1.769,1.724,2.957,1.711C297.258,255.556,298.17,254.938,298.808,253.712z"/>
			<path fill="#93278F" d="M308.478,257.293c-1.604-2.361-2.508-5.34-2.713-8.964c-0.206-3.613,0.359-6.683,1.695-9.251
				c1.336-2.618,3.066-4.14,5.189-4.525c1.646-0.304,3.149,0.193,4.512,1.512c1.36,1.346,2.367,3.389,3.019,6.132l-4.304,0.56
				c-0.664-1.839-1.615-2.662-2.854-2.484c-1.237,0.176-2.175,0.974-2.812,2.382c-0.638,1.396-0.896,3.186-0.774,5.376
				c0.121,2.194,0.573,3.931,1.355,5.217c0.783,1.3,1.793,1.933,3.03,1.887c1.238-0.048,2.088-1.047,2.549-3.006l4.304-0.28
				c-0.361,2.867-1.142,5.116-2.339,6.735c-1.198,1.59-2.621,2.373-4.267,2.37C311.945,260.943,310.081,259.708,308.478,257.293z"/>
			<path fill="#93278F" d="M324.5,260.664l-1.388-27.714l3.606-0.718l1.388,28.371L324.5,260.664z"/>
			<path fill="#93278F" d="M339.9,229.359l0.258,5.659l-5.359,0.986l0.299,6.386l4.726-0.682l0.257,5.679l-4.726,0.522l0.322,6.941
				l5.358-0.369l0.257,5.736l-8.966,0.291l-1.392-29.222L339.9,229.359z"/>
			<path fill="#93278F" d="M343.306,234.512l-0.258-5.768l11.688-2.739l0.258,6.161l-4.052,0.836l1.13,26.711l-3.606,0.189
				l-1.13-26.176L343.306,234.512z"/>
			<path fill="#93278F" d="M366.798,258.744l-3.608,0.268l-0.446-11.245l-6.067-22.236l4.093-1.019l3.475,15.061l2.2-16.514
				l4.093-1.078l-4.185,25.307L366.798,258.744z"/>
		</g>
	</g>
	<path fill="#D4145A" d="M156.811,245.174l44.097-5l2.569,12.06l-31.24,4.272l2.241,11.727c0,0,15.999-4.833,26,1.667
		c6.247,4.061,12.438,25.96,3.333,35c-11.642,11.559-39.333,2.667-39.333,2.667l1.666-14.334c0,0,20.833,7.667,28.543,1.941
		c3.782-2.809,2.532-8.815-1.589-14.545s-26.536,0.545-26.536,0.545L156.811,245.174z"/>
	<path fill="#D4145A" d="M260.477,242.892c0,0-14.546-8.225-23.63-6.589c-9.081,1.634-15.894,6.33-19.298,11.436
		c-3.408,5.106-5.961,24.713-3.408,40.03c1.157,6.93,7.947,17.974,19.302,17.974c11.352,0,28.379-2.656,32.354-6.535
		c3.975-3.881-0.127-24.313-0.127-24.313l-18.805-1.975l-0.788,10.561l5.679,1.021l0.722,5.915c0,0-8.24,1.394-13.5,1.05
		c-6.04-0.396-8.612-3.606-8.997-6.693c-1.51-12.15-4.561-24.543,2.747-32.166c5.674-5.923,24.5,2.889,24.5,2.889L260.477,242.892z"
		/>
	<g>
		<g>
			<path fill="#93278F" d="M101.505,313.123c-2.06-1.657-3.396-4.316-4.01-7.961c-0.613-3.668-0.29-6.99,0.97-9.919
				c1.261-2.889,3.094-4.664,5.499-5.343c2.406-0.663,4.63-0.077,6.673,1.714c2.042,1.744,3.37,4.275,3.983,7.606
				c0.613,3.307,0.295,6.319-0.956,9.089c-1.25,2.808-3.074,4.716-5.472,5.703C105.794,315.016,103.565,314.734,101.505,313.123z
				 M110.14,305.808c0.586-1.482,0.698-3.219,0.336-5.22c-0.361-2.009-1.052-3.494-2.069-4.459c-1.019-0.978-2.198-1.267-3.54-0.855
				c-1.342,0.418-2.306,1.385-2.892,2.907c-0.586,1.532-0.697,3.362-0.336,5.474c0.362,2.104,1.052,3.626,2.07,4.565
				c1.018,0.926,2.197,1.123,3.539,0.603C108.59,308.308,109.554,307.302,110.14,305.808z"/>
			<path fill="#93278F" d="M118.771,300.203l-2.471-13.209l4.073-0.99l2.471,12.886c0.248,1.27,0.685,2.164,1.311,2.68
				c0.626,0.511,1.415,0.603,2.368,0.283c0.953-0.317,1.616-0.889,1.99-1.713c0.375-0.821,0.438-1.841,0.19-3.063l-2.471-12.421
				l4.073-0.884l2.471,12.097c0.365,1.756,0.336,3.372-0.09,4.861c-0.426,1.496-1.105,2.722-2.039,3.674
				c-0.935,0.965-2.021,1.672-3.259,2.123c-1.938,0.711-3.723,0.564-5.355-0.464C120.402,305.004,119.314,303.051,118.771,300.203z"
				/>
			<path fill="#93278F" d="M141.577,293.69l1.61,7.203l-4.073,1.333l-4.14-19.415l6.598-1.26c1.938-0.348,3.569-0.054,4.897,0.859
				c1.327,0.895,2.166,2.1,2.516,3.62c0.24,1.038,0.18,2.11-0.18,3.228c-0.359,1.124-1.158,2.056-2.398,2.803l5.783,6.041
				l-4.764,1.45l-5.373-5.99L141.577,293.69z M139.814,285.602l0.996,4.598l2.525-0.611c0.619-0.146,1.062-0.463,1.328-0.951
				c0.268-0.483,0.327-1.055,0.18-1.712c-0.147-0.66-0.451-1.163-0.91-1.513c-0.46-0.35-0.991-0.465-1.595-0.341L139.814,285.602z"
				/>
		</g>
	</g>
	<g>
		<g>
			<path fill="#93278F" d="M276.036,272.021l0.156-2.343l10.04-0.732l-0.156,2.65l-3.479,0.135l-0.684,11.077l-3.1-0.287
				l0.684-10.659L276.036,272.021z"/>
			<path fill="#93278F" d="M289.41,281.541c-1.181-1.509-1.709-3.32-1.585-5.47c0.125-2.156,0.858-3.958,2.202-5.431
				c1.342-1.513,2.93-2.343,4.76-2.456c1.831-0.108,3.33,0.589,4.5,2.119c1.17,1.569,1.692,3.607,1.567,6.083
				c-0.124,2.469-0.855,4.459-2.193,5.941c-1.337,1.443-2.918,2.047-4.742,1.847C292.095,283.977,290.591,283.091,289.41,281.541z
				 M296.61,279.615c0.653-0.802,1.018-1.911,1.091-3.322c0.073-1.413-0.174-2.545-0.739-3.385
				c-0.566-0.829-1.359-1.229-2.381-1.206c-1.021,0.024-1.858,0.446-2.512,1.258c-0.654,0.799-1.019,1.854-1.092,3.17
				c-0.073,1.314,0.174,2.377,0.74,3.197c0.565,0.83,1.359,1.285,2.38,1.357C295.119,280.759,295.956,280.406,296.61,279.615z"/>
			<path fill="#93278F" d="M304.597,282.871c-1.182-1.765-1.71-3.893-1.586-6.414c0.125-2.528,0.858-4.626,2.202-6.32
				c1.343-1.734,2.927-2.659,4.752-2.74c1.413-0.062,2.645,0.438,3.694,1.51c1.05,1.095,1.749,2.648,2.096,4.654l-3.697-0.061
				c-0.422-1.359-1.164-2.032-2.227-2.026c-1.063,0.008-1.923,0.482-2.576,1.413c-0.654,0.922-1.018,2.146-1.091,3.683
				c-0.073,1.534,0.173,2.777,0.739,3.738c0.565,0.973,1.362,1.507,2.391,1.598c0.736,0.064,1.35-0.146,1.839-0.637
				c0.489-0.494,0.832-1.187,1.031-2.072l-3.589-0.227l0.155-3.329l6.923,0.239l-0.155,3.541c-0.307,1.72-1.012,3.273-2.116,4.649
				c-0.528,0.654-1.167,1.154-1.919,1.504c-0.75,0.345-1.535,0.463-2.356,0.36C307.281,285.706,305.778,284.677,304.597,282.871z"/>
			<path fill="#93278F" d="M326.627,267.061l-0.155,3.89l-4.603-0.022l-0.181,4.34l4.06,0.163l-0.155,3.851l-4.06-0.286
				l-0.195,4.659l4.603,0.504l-0.155,3.846l-7.701-1.065l0.842-19.666L326.627,267.061z"/>
			<path fill="#93278F" d="M329.169,271.034l0.156-3.972l10.04-0.145l-0.156,4.279l-3.479-0.068l-0.684,18.243l-3.1-0.469
				l0.684-17.826L329.169,271.034z"/>
			<path fill="#93278F" d="M350.128,266.885l3.1,0.016l-0.84,25.288l-3.1-0.529l0.348-10.235l-4.911-0.477l-0.348,9.898
				l-3.098-0.499l0.84-23.449l3.098-0.014l-0.336,9.627l4.911,0.326L350.128,266.885z"/>
			<path fill="#93278F" d="M364.555,266.966l-0.155,5.052l-4.604-0.214l-0.181,5.689l4.061,0.334l-0.155,5.013l-4.061-0.456
				l-0.195,6.117l4.604,0.696l-0.155,5.009l-7.701-1.388l0.842-25.963L364.555,266.966z"/>
			<path fill="#93278F" d="M370.708,284.501l-0.326,10.96l-3.098-0.59l0.84-27.754l5.02,0.128c1.474,0.044,2.596,0.952,3.367,2.732
				c0.771,1.799,1.121,3.947,1.05,6.436c-0.048,1.702-0.319,3.34-0.812,4.906c-0.494,1.556-1.257,2.6-2.292,3.13l2.776,12.351
				l-3.625-0.715l-2.537-11.537L370.708,284.501z M371.065,272.45l-0.201,6.818l1.922,0.186c0.471,0.048,0.851-0.229,1.142-0.832
				c0.29-0.604,0.45-1.42,0.48-2.449c0.029-1.029-0.086-1.883-0.344-2.56c-0.258-0.676-0.618-1.025-1.077-1.053L371.065,272.45z"/>
		</g>
	</g>
	<polygon fill="#D4145A" points="75.477,307.508 21.144,338.899 14.478,330.232 	"/>
	<polygon fill="#D4145A" points="85.144,295.566 26.478,304.232 32.478,314.232 	"/>
	<polygon fill="#D4145A" points="284.232,294.179 379.862,307.341 378.977,314.399 	"/>
	<polygon fill="#D4145A" points="303.477,302.899 358.187,317.825 355.977,324.399 	"/>
	<polygon fill="#D4145A" points="84.311,309.674 60.311,328.174 67.811,334.899 	"/>
</g>
</svg>
