<?xml version="1.0" encoding="utf-8"?>
<!-- Generator: Adobe Illustrator 16.0.0, SVG Export Plug-In . SVG Version: 6.00 Build 0)  -->
<!DOCTYPE svg PUBLIC "-//W3C//DTD SVG 1.0//EN" "http://www.w3.org/TR/2001/REC-SVG-20010904/DTD/svg10.dtd">
<svg version="1.0" id="Layer_1" xmlns="http://www.w3.org/2000/svg" xmlns:xlink="http://www.w3.org/1999/xlink" x="0px" y="0px"
	 width="390px" height="328px" viewBox="0 0 390 328" enable-background="new 0 0 390 328" xml:space="preserve">
<g>
	<linearGradient id="SVGID_2_" gradientUnits="userSpaceOnUse" x1="-90.9736" y1="-75.2822" x2="266.7175" y2="175.7895">
		<stop  offset="0" style="stop-color:#F4F4E4"/>
		<stop  offset="0.0884" style="stop-color:#D5C1E0"/>
		<stop  offset="0.1838" style="stop-color:#B890DC"/>
		<stop  offset="0.2311" style="stop-color:#AC7DDA"/>
		<stop  offset="0.3111" style="stop-color:#A461C2"/>
		<stop  offset="0.4471" style="stop-color:#98379D"/>
		<stop  offset="0.5168" style="stop-color:#93278F"/>
		<stop  offset="1" style="stop-color:#D35962"/>
	</linearGradient>
	<path fill="url(#SVGID_2_)" d="M115.768,156.239l-18.436,1.945l-10.615-46.101l-12.611,33.22l-18.309-0.109L41.184,23.208
		l13.523-3.279l13.486,104.396L89.26,35.472l2.797-0.339l11.484,91.909l18.186-105.006l16.588,1.031L115.768,156.239z
		 M137.49,95.143c-0.168-32.981,9.379-43.722,12.492-49.197c5.441-9.558,33.639-14.393,39.436-9.396
		c5.793,4.996,19.154,31.072,16.125,53.039c-3.033,21.965-17.514,40.645-32.963,39.17C172.58,128.759,137.656,128.13,137.49,95.143z
		 M156.414,94.26c2.254,8.384,2.742,9.449,25.6,7.776c22.859-1.669-0.148-42.26-5.059-43.594s-19.213,5.504-19.213,5.504
		S154.16,85.878,156.414,94.26z M323.988,1.714l-18.365,0.863l-27.08,105.232L259.529,29.78l-7.736-0.482l-20.186,83.607
		L229.082,1.827l-16.75,1.63l7.436,148.138l15.174-3.066l21.758-82.169l6.779,87.288l16.713-0.967L323.988,1.714z M108.928,180.343
		c-0.281-0.241-0.607-0.349-0.977-0.322l-1.789,0.13l0.652,8.985l1.787-0.129c0.369-0.027,0.678-0.18,0.92-0.459
		c0.24-0.279,0.35-0.605,0.32-0.979l-0.457-6.307C109.359,180.892,109.205,180.585,108.928,180.343z M170.43,178.188l-0.166,12.412
		l2.566-0.186l-1.953-12.259L170.43,178.188z M227.361,171.766c-0.279-0.241-0.605-0.349-0.977-0.321l-1.785,0.129l0.689,9.544
		l1.787-0.13c0.371-0.027,0.68-0.179,0.92-0.459c0.24-0.279,0.35-0.604,0.322-0.977l-0.496-6.865
		C227.795,172.315,227.641,172.008,227.361,171.766z M59.783,183.509c-0.279-0.241-0.605-0.348-0.977-0.321l-0.447,0.032
		c-0.371,0.027-0.68,0.181-0.92,0.459c-0.242,0.279-0.35,0.605-0.322,0.977l1.424,19.646c0.025,0.373,0.18,0.68,0.459,0.92
		c0.279,0.244,0.604,0.35,0.977,0.323l0.445-0.032c0.373-0.027,0.68-0.18,0.922-0.46c0.24-0.278,0.348-0.604,0.322-0.978
		l-1.424-19.646C60.217,184.058,60.062,183.751,59.783,183.509z M340.291,202.895L31,224.608l-1.598-55.62l311.264-24.214
		L340.291,202.895z M68.217,203.882l-1.463-20.205c-0.07-0.967-0.324-1.863-0.758-2.694c-0.434-0.827-0.99-1.536-1.668-2.124
		c-0.68-0.586-1.459-1.033-2.342-1.344s-1.809-0.43-2.775-0.36l-2.121,0.153c-0.967,0.07-1.865,0.322-2.693,0.756
		c-0.83,0.435-1.537,0.99-2.125,1.67c-0.586,0.678-1.035,1.459-1.344,2.34c-0.311,0.885-0.432,1.809-0.361,2.776l1.463,20.204
		c0.07,0.968,0.322,1.867,0.756,2.695c0.436,0.829,0.99,1.537,1.67,2.123c0.678,0.588,1.457,1.035,2.342,1.345
		c0.881,0.311,1.807,0.431,2.775,0.36l2.119-0.154c0.969-0.068,1.865-0.32,2.695-0.756c0.83-0.433,1.537-0.988,2.125-1.668
		c0.586-0.678,1.033-1.459,1.344-2.342S68.287,204.85,68.217,203.882z M92.494,202.124l-1.887-26.064
		c-0.039-0.521-0.318-0.764-0.838-0.725l-4.969,0.359c-0.521,0.037-0.762,0.316-0.723,0.838l1.867,25.785
		c0.025,0.373-0.082,0.699-0.324,0.977c-0.24,0.281-0.549,0.433-0.92,0.46l-0.447,0.032c-0.371,0.027-0.697-0.078-0.977-0.322
		c-0.279-0.24-0.432-0.547-0.459-0.92l-1.867-25.785c-0.037-0.521-0.318-0.764-0.838-0.727l-4.969,0.361
		c-0.521,0.037-0.762,0.316-0.723,0.838l1.887,26.064c0.07,0.968,0.322,1.866,0.756,2.695s0.99,1.537,1.668,2.123
		c0.678,0.588,1.459,1.035,2.344,1.345c0.881,0.311,1.807,0.43,2.773,0.36l2.121-0.154c0.967-0.07,1.865-0.321,2.695-0.756
		c0.828-0.434,1.537-0.988,2.123-1.668c0.586-0.678,1.035-1.459,1.346-2.342C92.443,204.017,92.564,203.092,92.494,202.124z
		 M118.871,206.105l-6.211-12.175c1.109-0.678,2.033-1.596,2.773-2.754c0.74-1.156,1.059-2.424,0.959-3.801l-0.496-6.865
		c-0.07-0.967-0.324-1.865-0.756-2.693c-0.436-0.828-0.992-1.536-1.67-2.123c-0.678-0.586-1.459-1.035-2.342-1.346
		s-1.809-0.43-2.773-0.36l-8.373,0.606c-0.521,0.037-0.762,0.316-0.725,0.838l2.311,31.926c0.039,0.521,0.299,0.764,0.783,0.729
		l4.967-0.36c0.559-0.04,0.818-0.32,0.781-0.841l-0.748-10.326l4.822,10.031c0.092,0.217,0.244,0.395,0.459,0.527
		c0.215,0.135,0.436,0.192,0.658,0.176l5.08-0.367C118.854,206.892,119.021,206.618,118.871,206.105z M156.936,203.349l-8.76-17.151
		l6.561-14.782c0.061-0.191,0.047-0.369-0.039-0.53c-0.088-0.162-0.242-0.235-0.465-0.219l-5.582,0.403
		c-0.521,0.039-0.857,0.287-1.012,0.746l-4.418,10.252l-0.709-9.768c-0.037-0.521-0.316-0.763-0.838-0.725l-4.967,0.359
		c-0.521,0.039-0.764,0.317-0.725,0.838l2.312,31.926c0.037,0.521,0.316,0.763,0.838,0.725l4.967-0.359
		c0.521-0.039,0.762-0.316,0.725-0.838l-0.533-7.367l0.818-1.855l4.746,8.971c0.088,0.18,0.229,0.33,0.426,0.445
		c0.195,0.119,0.404,0.168,0.627,0.15l5.525-0.4c0.225-0.016,0.385-0.109,0.484-0.286
		C157.018,203.708,157.023,203.53,156.936,203.349z M181.158,201.595l-6.498-31.623c-0.113-0.516-0.428-0.754-0.949-0.717
		l-7.367,0.533c-0.521,0.038-0.801,0.32-0.836,0.847l-1.875,32.229c-0.037,0.525,0.205,0.77,0.727,0.731l5.08-0.368
		c0.482-0.035,0.742-0.314,0.779-0.84l0.051-5.504l3.461-0.25l0.842,5.438c0.111,0.516,0.41,0.756,0.895,0.721l5.078-0.368
		C181.066,202.386,181.271,202.11,181.158,201.595z M210.795,199.448l-2.312-31.926c-0.037-0.521-0.316-0.764-0.836-0.725
		l-4.746,0.344c-0.223,0.016-0.412,0.113-0.566,0.293c-0.156,0.18-0.266,0.365-0.324,0.557l-3.166,17.51l-5.654-16.871
		c-0.088-0.181-0.221-0.349-0.4-0.504s-0.381-0.225-0.605-0.209l-4.742,0.344c-0.521,0.037-0.764,0.318-0.725,0.838l2.311,31.927
		c0.039,0.521,0.316,0.761,0.838,0.724l5.359-0.389c0.52-0.037,0.762-0.316,0.725-0.836l-1.076-14.848l4.646,13.018
		c0.086,0.181,0.188,0.266,0.299,0.258c0.113-0.008,0.197-0.107,0.26-0.299l2.721-13.551l1.074,14.848
		c0.039,0.521,0.318,0.762,0.84,0.724l5.357-0.388C210.592,200.247,210.832,199.97,210.795,199.448z M234.869,179.358l-0.537-7.424
		c-0.07-0.967-0.322-1.865-0.758-2.694c-0.434-0.828-0.99-1.536-1.668-2.123c-0.68-0.586-1.459-1.036-2.342-1.346
		s-1.807-0.431-2.775-0.36l-8.371,0.606c-0.521,0.038-0.764,0.317-0.725,0.838l2.312,31.927c0.035,0.52,0.314,0.761,0.836,0.723
		l4.969-0.359c0.52-0.037,0.762-0.316,0.725-0.836l-0.812-11.221l2.623-0.189c0.967-0.07,1.865-0.322,2.693-0.756
		c0.83-0.435,1.537-0.99,2.125-1.669c0.586-0.678,1.035-1.458,1.344-2.343C234.818,181.251,234.939,180.327,234.869,179.358z
		 M259.207,190.051l-1.887-26.065c-0.039-0.52-0.318-0.763-0.838-0.725l-4.967,0.359c-0.521,0.039-0.764,0.318-0.725,0.838
		l1.865,25.786c0.029,0.372-0.08,0.698-0.32,0.978c-0.242,0.279-0.551,0.432-0.922,0.459l-0.445,0.032
		c-0.373,0.026-0.699-0.079-0.979-0.321c-0.279-0.241-0.432-0.549-0.459-0.92l-1.867-25.787c-0.037-0.52-0.316-0.762-0.838-0.725
		l-4.967,0.359c-0.521,0.038-0.764,0.318-0.725,0.838l1.887,26.065c0.07,0.968,0.322,1.866,0.756,2.695s0.99,1.536,1.668,2.122
		c0.68,0.589,1.459,1.036,2.342,1.346c0.883,0.311,1.809,0.43,2.775,0.359l2.121-0.152c0.967-0.07,1.865-0.322,2.695-0.756
		c0.828-0.434,1.535-0.989,2.123-1.67c0.586-0.678,1.035-1.457,1.346-2.341C259.156,191.944,259.277,191.019,259.207,190.051z
		 M286.143,193.992l-2.311-31.927c-0.039-0.52-0.318-0.762-0.84-0.725l-4.967,0.359c-0.521,0.039-0.762,0.317-0.725,0.838
		l1.172,16.187l-6.98-15.821c-0.088-0.18-0.24-0.338-0.455-0.473c-0.217-0.133-0.436-0.192-0.658-0.177l-3.684,0.267
		c-0.521,0.039-0.762,0.318-0.725,0.838l2.312,31.927c0.037,0.521,0.316,0.763,0.838,0.724l4.967-0.359
		c0.521-0.037,0.762-0.316,0.725-0.837l-1.051-14.513l6.971,14.141c0.088,0.18,0.24,0.338,0.455,0.471
		c0.215,0.135,0.436,0.193,0.658,0.177l3.572-0.259C285.938,194.792,286.182,194.513,286.143,193.992z M310.557,186.331
		l-0.861-11.888c-0.039-0.52-0.318-0.763-0.84-0.725l-7.311,0.529l0.461,6.362l1.562-0.111l0.438,6.027
		c0.025,0.372-0.082,0.697-0.322,0.977c-0.242,0.281-0.551,0.432-0.922,0.459l-0.445,0.033c-0.373,0.026-0.699-0.08-0.979-0.322
		s-0.432-0.549-0.459-0.921l-1.422-19.646c-0.027-0.372,0.08-0.698,0.32-0.978c0.242-0.278,0.549-0.433,0.922-0.46l0.447-0.031
		c0.371-0.027,0.697,0.08,0.977,0.321c0.277,0.241,0.432,0.55,0.459,0.921l0.234,3.236c0.039,0.523,0.293,0.689,0.766,0.506
		l4.945-2.21c0.473-0.183,0.691-0.534,0.654-1.058l-0.09-1.227c-0.07-0.968-0.322-1.865-0.756-2.695
		c-0.434-0.828-0.99-1.536-1.67-2.123c-0.678-0.586-1.457-1.035-2.34-1.346c-0.885-0.309-1.809-0.43-2.775-0.359l-2.121,0.153
		c-0.969,0.07-1.867,0.322-2.695,0.757c-0.83,0.434-1.537,0.99-2.123,1.668c-0.588,0.68-1.037,1.459-1.346,2.342
		c-0.311,0.883-0.43,1.809-0.359,2.775l1.463,20.204c0.07,0.968,0.322,1.866,0.756,2.694c0.434,0.83,0.988,1.538,1.668,2.124
		c0.68,0.587,1.459,1.036,2.344,1.345c0.881,0.311,1.807,0.431,2.775,0.359l2.119-0.152c0.967-0.07,1.865-0.322,2.695-0.756
		c0.828-0.434,1.535-0.99,2.123-1.669c0.586-0.679,1.035-1.458,1.346-2.341S310.625,187.3,310.557,186.331z M318.15,170.353
		l2.076,11.631c0.111,0.518,0.41,0.758,0.895,0.723l2.344-0.17c0.482-0.035,0.742-0.314,0.779-0.844l0.381-11.81
		c0.02-0.226,0.02-0.485,0-0.784c-0.023-0.297-0.041-0.559-0.059-0.781l-1.066-14.734c-0.037-0.521-0.316-0.764-0.838-0.725
		l-5.023,0.363c-0.521,0.037-0.764,0.316-0.725,0.838l1.068,14.734c0.016,0.223,0.033,0.484,0.055,0.782
		S318.096,170.132,318.15,170.353z M326.32,188.669c-0.068-0.967-0.484-1.779-1.24-2.434c-0.76-0.656-1.623-0.949-2.588-0.879
		c-0.969,0.07-1.781,0.484-2.436,1.242c-0.658,0.758-0.951,1.621-0.879,2.588c0.07,0.968,0.482,1.781,1.242,2.435
		c0.758,0.655,1.619,0.948,2.588,0.878c0.967-0.07,1.779-0.484,2.436-1.242C326.098,190.501,326.393,189.638,326.32,188.669z"/>
	<g>
		<g>
			<path fill="#93278F" d="M23.582,248.788l1.978,31.594c0.028,0.438-0.118,0.691-0.438,0.767l-2.197,0.51
				c-0.137,0.033-0.273,0-0.406-0.096c-0.134-0.097-0.229-0.219-0.283-0.363l-4.611-14.946l0.971,15.743
				c0.027,0.446-0.119,0.704-0.439,0.779l-3.053,0.724c-0.322,0.076-0.496-0.108-0.523-0.559l-1.978-32.45
				c-0.027-0.453,0.119-0.706,0.44-0.756l2.264-0.353c0.138-0.021,0.273,0.022,0.406,0.132c0.134,0.109,0.229,0.24,0.284,0.393
				l4.514,14.728l-0.942-15.231c-0.027-0.445,0.119-0.693,0.439-0.742l3.055-0.462C23.381,248.149,23.555,248.348,23.582,248.788z"
				/>
			<path fill="#93278F" d="M37.993,246.664l1.669,25.728c0.051,0.784-0.016,1.546-0.199,2.287c-0.184,0.742-0.453,1.411-0.809,2.011
				s-0.787,1.107-1.293,1.528c-0.508,0.422-1.057,0.699-1.652,0.834l-1.303,0.296c-0.596,0.135-1.166,0.109-1.712-0.077
				c-0.546-0.188-1.029-0.497-1.451-0.934c-0.423-0.437-0.771-0.983-1.044-1.642c-0.275-0.658-0.438-1.39-0.488-2.194l-1.669-26.383
				c-0.027-0.436,0.118-0.679,0.439-0.728l3.054-0.446c0.32-0.046,0.494,0.148,0.521,0.58l1.654,25.89
				c0.02,0.306,0.117,0.55,0.291,0.728c0.173,0.181,0.375,0.245,0.604,0.196l0.274-0.059c0.229-0.05,0.417-0.198,0.563-0.445
				c0.145-0.246,0.209-0.522,0.189-0.826l-1.654-25.765c-0.027-0.43,0.119-0.669,0.439-0.715l3.054-0.436
				C37.792,246.047,37.966,246.239,37.993,246.664z"/>
			<path fill="#93278F" d="M55.07,273.856c0.096,0.391-0.006,0.618-0.303,0.682l-3.123,0.672c-0.137,0.029-0.271-0.002-0.406-0.089
				c-0.133-0.091-0.229-0.22-0.286-0.385l-3.226-10.29l0.762,11.448l-0.064-0.435c-0.025,0.307-0.164,0.484-0.416,0.539l-3.055,0.67
				c-0.32,0.07-0.494-0.101-0.521-0.519l-1.978-30.119c-0.027-0.421,0.119-0.654,0.439-0.699l5.147-0.707
				c0.594-0.08,1.164-0.008,1.711,0.215c0.545,0.225,1.029,0.558,1.451,1.004c0.422,0.445,0.771,0.987,1.045,1.627
				c0.273,0.642,0.436,1.341,0.486,2.1l0.48,7.135c0.072,1.078-0.08,2.084-0.456,3.019c-0.378,0.938-0.904,1.703-1.582,2.301
				L55.07,273.856z M47.334,258.549l1.098-0.188c0.229-0.039,0.416-0.176,0.563-0.411c0.146-0.232,0.21-0.497,0.19-0.791
				l-0.45-6.767c-0.021-0.297-0.117-0.535-0.29-0.719c-0.175-0.182-0.376-0.257-0.604-0.223l-1.098,0.163L47.334,258.549z"/>
			<path fill="#93278F" d="M66.199,242.855l0.262,3.761c0.027,0.396-0.118,0.613-0.438,0.657l-2.437,0.341l1.675,24.107
				c0.028,0.395-0.118,0.623-0.438,0.691l-3.055,0.639c-0.115,0.024-0.227-0.011-0.338-0.103s-0.172-0.224-0.184-0.394
				l-1.676-24.373l-2.4,0.345c-0.321,0.046-0.495-0.132-0.522-0.538l-0.263-3.861c-0.027-0.405,0.119-0.63,0.44-0.672l8.853-1.134
				C65.998,242.282,66.172,242.461,66.199,242.855z"/>
			<path fill="#93278F" d="M79.926,241.172l1.668,22.965c0.052,0.7-0.016,1.38-0.197,2.04c-0.186,0.662-0.455,1.259-0.81,1.793
				c-0.356,0.535-0.787,0.988-1.294,1.363c-0.506,0.377-1.057,0.624-1.651,0.744l-1.304,0.264c-0.596,0.121-1.166,0.098-1.711-0.069
				c-0.547-0.168-1.029-0.445-1.452-0.835c-0.423-0.392-0.771-0.881-1.044-1.47c-0.275-0.59-0.437-1.244-0.488-1.964l-1.668-23.62
				c-0.027-0.392,0.118-0.607,0.438-0.647l3.054-0.372c0.32-0.038,0.494,0.137,0.521,0.523l1.654,23.151
				c0.02,0.273,0.117,0.491,0.291,0.651c0.174,0.161,0.375,0.22,0.604,0.176l0.275-0.052c0.229-0.043,0.416-0.176,0.562-0.396
				c0.146-0.22,0.209-0.467,0.189-0.738l-1.654-23.026c-0.027-0.384,0.119-0.597,0.439-0.635l3.055-0.36
				C79.724,240.62,79.898,240.792,79.926,241.172z"/>
			<path fill="#93278F" d="M97.002,265.462c0.096,0.347-0.006,0.548-0.303,0.604l-3.123,0.596c-0.137,0.025-0.271-0.001-0.406-0.079
				c-0.133-0.08-0.229-0.195-0.286-0.342l-3.227-9.158l0.763,10.187l-0.064-0.387c-0.025,0.272-0.164,0.431-0.416,0.479
				l-3.055,0.595c-0.32,0.062-0.494-0.09-0.521-0.462l-1.978-26.846c-0.027-0.375,0.118-0.582,0.439-0.619l5.147-0.579
				c0.594-0.067,1.164,0.003,1.711,0.206c0.545,0.204,1.029,0.506,1.451,0.906c0.422,0.399,0.771,0.884,1.045,1.455
				c0.273,0.572,0.436,1.194,0.486,1.869l0.48,6.34c0.072,0.958-0.08,1.851-0.456,2.68c-0.378,0.83-0.905,1.51-1.582,2.036
				L97.002,265.462z M89.266,251.832l1.098-0.161c0.229-0.033,0.416-0.154,0.563-0.361c0.146-0.206,0.21-0.441,0.19-0.703
				l-0.45-6.022c-0.021-0.264-0.117-0.476-0.29-0.64c-0.175-0.164-0.377-0.232-0.604-0.204l-1.099,0.136L89.266,251.832z"/>
			<path fill="#93278F" d="M104.996,263.977c0.027,0.353-0.119,0.556-0.439,0.615l-3.053,0.568c-0.32,0.061-0.494-0.086-0.521-0.442
				l-1.979-25.704c-0.027-0.359,0.119-0.557,0.439-0.591l3.054-0.32c0.32-0.033,0.494,0.129,0.521,0.483L104.996,263.977z"/>
			<path fill="#93278F" d="M118.803,236.999l1.979,24.158c0.027,0.335-0.119,0.528-0.439,0.585l-2.195,0.388
				c-0.139,0.024-0.273,0-0.408-0.073c-0.133-0.074-0.229-0.169-0.283-0.28l-4.611-11.484l0.971,12.093
				c0.027,0.342-0.119,0.54-0.439,0.597l-3.053,0.553c-0.32,0.058-0.494-0.085-0.522-0.431l-1.978-25.016
				c-0.027-0.35,0.119-0.542,0.439-0.574l2.265-0.226c0.138-0.014,0.272,0.023,0.406,0.11s0.228,0.188,0.284,0.308l4.514,11.375
				l-0.942-11.691c-0.027-0.343,0.118-0.53,0.438-0.562l3.055-0.291C118.602,236.507,118.775,236.661,118.803,236.999z"/>
			<path fill="#93278F" d="M130.54,235.526c0.546,0.186,1.03,0.458,1.452,0.816c0.422,0.356,0.77,0.788,1.045,1.296
				c0.273,0.509,0.436,1.06,0.486,1.657l0.094,1.102c0.027,0.322-0.104,0.543-0.393,0.667l-3.025,1.481
				c-0.289,0.126-0.447,0.026-0.476-0.299l-0.2-2.372c-0.02-0.232-0.117-0.422-0.29-0.568c-0.174-0.147-0.376-0.209-0.604-0.186
				l-0.273,0.027c-0.229,0.022-0.418,0.123-0.563,0.303c-0.146,0.181-0.21,0.389-0.19,0.623l1.33,15.805
				c0.02,0.232,0.117,0.417,0.291,0.553c0.174,0.137,0.375,0.188,0.604,0.151l0.275-0.044c0.229-0.036,0.416-0.147,0.562-0.334
				c0.146-0.186,0.209-0.395,0.189-0.625l-0.523-6.168l-0.961,0.129l-0.336-3.974l4.496-0.542c0.32-0.038,0.494,0.103,0.521,0.423
				l0.832,9.683c0.052,0.592-0.016,1.167-0.197,1.726c-0.185,0.561-0.455,1.065-0.81,1.518c-0.356,0.453-0.787,0.836-1.294,1.153
				c-0.506,0.318-1.057,0.528-1.651,0.63l-1.304,0.223c-0.596,0.103-1.166,0.083-1.711-0.061c-0.547-0.143-1.029-0.379-1.451-0.71
				c-0.424-0.333-0.771-0.75-1.045-1.252c-0.275-0.501-0.437-1.059-0.488-1.671l-1.359-16.369c-0.051-0.618,0.016-1.21,0.199-1.78
				c0.184-0.567,0.453-1.07,0.809-1.51c0.355-0.44,0.786-0.801,1.293-1.085c0.506-0.282,1.057-0.45,1.652-0.504l1.304-0.114
				C129.424,235.272,129.994,235.341,130.54,235.526z"/>
		</g>
	</g>
	<g>
		<g>
			<path fill="#93278F" d="M267.873,226.776c0.545,0.184,1.018,0.465,1.418,0.841c0.4,0.379,0.715,0.843,0.949,1.391
				c0.23,0.552,0.346,1.152,0.34,1.803l-0.014,1.427c-0.004,0.35-0.16,0.589-0.471,0.715l-3.25,1.164
				c-0.311,0.124-0.465,0.015-0.461-0.329l0.021-2.392c0.002-0.244-0.078-0.445-0.242-0.601c-0.166-0.154-0.367-0.221-0.605-0.197
				l-0.285,0.028c-0.236,0.024-0.439,0.129-0.607,0.315c-0.168,0.188-0.254,0.402-0.256,0.644l-0.031,3.316
				c0.021,0.266,0.066,0.493,0.137,0.681c0.07,0.189,0.199,0.374,0.387,0.555l4.637,3.316c0.375,0.33,0.617,0.672,0.721,1.028
				s0.176,0.759,0.221,1.206l-0.059,6.447c-0.006,0.648-0.131,1.263-0.373,1.837c-0.244,0.575-0.568,1.074-0.977,1.495
				c-0.408,0.422-0.887,0.754-1.436,0.997s-1.133,0.361-1.75,0.357l-1.354-0.009c-0.619-0.005-1.199-0.13-1.744-0.373
				c-0.545-0.244-1.016-0.569-1.416-0.977c-0.4-0.406-0.717-0.883-0.949-1.43c-0.23-0.545-0.344-1.125-0.338-1.744l0.033-3.421
				c0.002-0.334,0.158-0.553,0.467-0.659l3.254-0.987c0.309-0.109,0.461,0.007,0.459,0.346l-0.043,4.476
				c-0.002,0.243,0.08,0.448,0.244,0.616c0.166,0.168,0.367,0.251,0.604,0.248l0.285-0.004c0.238-0.003,0.441-0.091,0.609-0.264
				s0.252-0.382,0.254-0.628l0.045-4.849c-0.02-0.318-0.064-0.599-0.135-0.841c-0.068-0.241-0.209-0.455-0.422-0.641l-4.562-3.337
				c-0.354-0.311-0.605-0.626-0.756-0.95c-0.152-0.322-0.225-0.757-0.219-1.305l0.041-4.282c0.006-0.619,0.129-1.215,0.371-1.788
				c0.242-0.574,0.568-1.087,0.977-1.539c0.408-0.454,0.885-0.833,1.434-1.139s1.133-0.496,1.752-0.569l1.354-0.159
				C266.748,226.54,267.328,226.595,267.873,226.776z"/>
			<path fill="#93278F" d="M284.855,247.935c-0.006,0.694-0.131,1.349-0.373,1.962c-0.242,0.614-0.568,1.146-0.977,1.595
				s-0.887,0.805-1.434,1.064c-0.549,0.259-1.133,0.386-1.75,0.38l-1.355-0.012c-0.617-0.006-1.197-0.14-1.742-0.401
				c-0.545-0.26-1.018-0.608-1.416-1.046c-0.4-0.435-0.717-0.945-0.949-1.531c-0.232-0.585-0.346-1.208-0.34-1.869l0.158-17.658
				c0.006-0.662,0.129-1.298,0.373-1.91c0.242-0.614,0.568-1.16,0.977-1.641c0.406-0.481,0.885-0.883,1.434-1.204
				c0.549-0.322,1.133-0.52,1.75-0.593l1.355-0.158c0.617-0.072,1.197-0.01,1.742,0.191c0.543,0.202,1.016,0.506,1.416,0.911
				c0.4,0.408,0.717,0.906,0.949,1.495c0.23,0.59,0.346,1.233,0.34,1.927L284.855,247.935z M280.842,230.028
				c0.002-0.263-0.08-0.477-0.244-0.646c-0.164-0.166-0.365-0.237-0.604-0.214l-0.285,0.026c-0.238,0.024-0.441,0.137-0.607,0.334
				c-0.168,0.198-0.254,0.428-0.256,0.687l-0.154,17.606c-0.002,0.261,0.08,0.48,0.244,0.659c0.164,0.181,0.365,0.269,0.604,0.267
				l0.285-0.002c0.238-0.003,0.441-0.098,0.607-0.281c0.168-0.185,0.254-0.409,0.256-0.671L280.842,230.028z"/>
			<path fill="#93278F" d="M296.922,223.43c0.543,0.22,1.016,0.548,1.416,0.984c0.4,0.438,0.717,0.97,0.949,1.598
				c0.23,0.631,0.346,1.314,0.34,2.054l-0.027,3.41c-0.004,0.399-0.162,0.668-0.471,0.803l-3.248,0.835
				c-0.309,0.134-0.463,0.007-0.459-0.386l0.033-4.064c0.002-0.277-0.08-0.508-0.244-0.688c-0.166-0.179-0.367-0.258-0.604-0.234
				l-0.285,0.028c-0.238,0.022-0.441,0.139-0.609,0.35c-0.168,0.21-0.252,0.453-0.254,0.73l-0.154,18.77
				c-0.002,0.276,0.078,0.511,0.242,0.703c0.166,0.192,0.367,0.287,0.605,0.285l0.285-0.003c0.236-0.003,0.439-0.101,0.607-0.298
				s0.254-0.435,0.256-0.715l0.047-5.858c0.004-0.392,0.158-0.537,0.467-0.438l3.24,0.383c0.307,0.104,0.459,0.353,0.457,0.749
				l-0.043,5.324c-0.006,0.738-0.131,1.435-0.373,2.088c-0.242,0.651-0.568,1.218-0.977,1.697c-0.408,0.479-0.887,0.855-1.434,1.131
				c-0.549,0.275-1.133,0.41-1.752,0.403l-1.354-0.013c-0.619-0.006-1.199-0.15-1.742-0.43c-0.545-0.277-1.018-0.651-1.418-1.118
				c-0.4-0.465-0.717-1.01-0.949-1.636c-0.23-0.624-0.346-1.289-0.34-1.996l0.158-18.846c0.006-0.707,0.131-1.387,0.373-2.037
				c0.242-0.651,0.568-1.232,0.977-1.741c0.408-0.512,0.887-0.935,1.436-1.272c0.547-0.338,1.131-0.545,1.75-0.615l1.354-0.157
				C295.797,223.139,296.377,223.212,296.922,223.43z"/>
			<path fill="#93278F" d="M308.059,252.285c-0.004,0.411-0.172,0.615-0.504,0.611l-3.174-0.03
				c-0.332-0.003-0.498-0.207-0.494-0.612l0.229-29.163c0.004-0.405,0.172-0.627,0.504-0.665l3.174-0.36
				c0.332-0.038,0.496,0.149,0.494,0.562L308.059,252.285z"/>
			<path fill="#93278F" d="M321.811,248.257l-0.031,4.141c-0.004,0.434-0.172,0.647-0.504,0.646l-7.734-0.084
				c-0.334-0.005-0.498-0.215-0.494-0.636l0.229-30.247c0.002-0.419,0.17-0.65,0.504-0.687l7.734-0.869
				c0.332-0.039,0.498,0.161,0.494,0.597l-0.029,4.146c-0.004,0.436-0.172,0.667-0.504,0.697l-4.064,0.372l-0.049,6.59l3.529-0.233
				c0.332-0.022,0.496,0.184,0.494,0.617l-0.031,4.135c-0.002,0.434-0.17,0.659-0.504,0.673l-3.527,0.162l-0.07,9.373l4.064-0.038
				C321.648,247.606,321.812,247.822,321.811,248.257z"/>
			<path fill="#93278F" d="M336.299,219.562l-0.029,4.37c-0.004,0.458-0.172,0.701-0.504,0.731l-2.531,0.229l-0.193,27.611
				c-0.004,0.451-0.172,0.676-0.504,0.673l-3.172-0.04c-0.119,0-0.232-0.065-0.338-0.193c-0.105-0.129-0.158-0.289-0.156-0.48
				l0.193-27.193l-2.496,0.228c-0.332,0.029-0.496-0.176-0.494-0.617l0.031-4.21c0.002-0.442,0.17-0.682,0.504-0.718l9.195-1.021
				C336.139,218.891,336.303,219.103,336.299,219.562z"/>
			<path fill="#93278F" d="M351.736,217.41c0.068,0.148,0.08,0.312,0.031,0.489l-4.238,21.585l-0.088,13.169
				c-0.004,0.479-0.172,0.713-0.504,0.709l-3.207-0.043c-0.334-0.005-0.498-0.242-0.494-0.711l0.088-12.978l-3.959-20.4
				c-0.047-0.16-0.033-0.319,0.039-0.477s0.18-0.244,0.322-0.259l3.777-0.416c0.334-0.037,0.521,0.178,0.566,0.645l1.34,12.624
				l0.143-0.008l1.51-12.938c0.051-0.481,0.242-0.739,0.576-0.775l3.777-0.414C351.559,217.197,351.666,217.263,351.736,217.41z"/>
		</g>
	</g>
	<path fill="#D4145A" d="M148.334,230.274l39-5l-0.666,12.666l-24.691,3.666l2.988,15.455c0,0,17.875-2.472,22.703,0.547
		c5.768,3.605,9.353,18.122,3.833,29.333S156,294.274,156,294.274v-11c0,0,23.481,0.891,25.833-3
		c2.354-3.889-1.405-14.545-1.405-14.545l-23.47,0.545L148.334,230.274z"/>
	<path fill="#D4145A" d="M241.934,232.698c0,0-11.416-9.529-18.58-7.973c-7.162,1.556-12.535,6.027-15.221,10.889
		c-2.688,4.862-4.701,23.53-2.688,38.115c0.912,6.598,6.268,17.113,15.223,17.113c8.953,0,22.383-2.529,25.518-6.223
		c3.135-3.695-0.1-23.149-0.1-23.149l-14.832-1.881l-0.621,10.056l4.479,0.973l0.447,7.389c0,0-6.326,1.661-10.475,1.334
		c-4.764-0.377-6.844-5.525-7.146-8.465c-1.191-11.568-2.137-23.336,3.627-30.594c4.475-5.64,12.613,2.097,12.613,2.097
		L241.934,232.698z"/>
	<g>
		<g>
			<path fill="#93278F" d="M108.146,298.879c0.136,0.723,0.131,1.458-0.012,2.212c-0.144,0.755-0.396,1.47-0.754,2.144
				c-0.358,0.679-0.814,1.299-1.368,1.861c-0.554,0.563-1.172,1.01-1.856,1.336l-1.501,0.719c-0.685,0.329-1.355,0.497-2.013,0.501
				c-0.658,0.002-1.255-0.138-1.791-0.421c-0.537-0.285-0.996-0.706-1.379-1.264c-0.384-0.56-0.643-1.229-0.778-2.007l-3.613-21.22
				c-0.136-0.815-0.133-1.627,0.012-2.434c0.143-0.805,0.394-1.542,0.753-2.212c0.358-0.666,0.815-1.244,1.368-1.732
				c0.554-0.485,1.172-0.824,1.857-1.017l1.5-0.421c0.685-0.189,1.355-0.216,2.014-0.08c0.657,0.135,1.254,0.394,1.79,0.775
				c0.536,0.38,0.996,0.871,1.38,1.475c0.383,0.6,0.643,1.278,0.778,2.038L108.146,298.879z M99.951,280.767
				c-0.053-0.3-0.189-0.527-0.41-0.681s-0.463-0.19-0.726-0.109l-0.316,0.098c-0.264,0.081-0.469,0.259-0.616,0.528
				c-0.148,0.271-0.195,0.56-0.144,0.864l3.535,20.18c0.053,0.29,0.188,0.495,0.409,0.616c0.221,0.119,0.463,0.12,0.727,0.001
				l0.316-0.143c0.262-0.117,0.468-0.316,0.616-0.601c0.147-0.282,0.195-0.565,0.144-0.853L99.951,280.767z"/>
			<path fill="#93278F" d="M119.901,270.535l4.435,21.811c0.136,0.645,0.131,1.302-0.012,1.973
				c-0.144,0.674-0.396,1.311-0.754,1.914c-0.359,0.605-0.814,1.16-1.368,1.663c-0.554,0.506-1.173,0.907-1.856,1.201l-1.5,0.647
				c-0.686,0.298-1.356,0.449-2.014,0.455c-0.658,0.004-1.255-0.119-1.791-0.373c-0.537-0.255-0.996-0.633-1.379-1.135
				c-0.384-0.502-0.643-1.104-0.778-1.804l-4.435-23.62c-0.073-0.4,0.074-0.647,0.443-0.74l3.515-0.859
				c0.368-0.088,0.589,0.062,0.662,0.451l4.396,22.695c0.053,0.26,0.188,0.445,0.409,0.553s0.462,0.107,0.727,0.002l0.315-0.127
				c0.264-0.106,0.469-0.285,0.617-0.538c0.147-0.253,0.195-0.507,0.144-0.765l-4.396-22.348c-0.073-0.383,0.074-0.617,0.443-0.702
				l3.514-0.789C119.607,270.02,119.828,270.164,119.901,270.535z"/>
			<path fill="#93278F" d="M142.531,289.555c0.152,0.269,0.057,0.465-0.285,0.589l-3.594,1.326
				c-0.157,0.059-0.319,0.072-0.485,0.038s-0.291-0.107-0.374-0.221l-4.799-7.377l2.025,8.938l-0.118-0.324
				c0,0.247-0.146,0.426-0.435,0.537l-3.515,1.376c-0.369,0.146-0.589,0.056-0.662-0.273l-5.256-24.729
				c-0.073-0.357,0.073-0.574,0.442-0.648l5.924-1.142c0.685-0.126,1.355-0.122,2.014,0.008c0.657,0.13,1.254,0.355,1.79,0.676
				c0.536,0.318,0.996,0.721,1.38,1.207c0.383,0.485,0.642,1.026,0.777,1.627l1.275,5.583c0.192,0.835,0.115,1.648-0.23,2.445
				c-0.347,0.803-0.886,1.502-1.618,2.099L142.531,289.555z M131.953,279.202l1.265-0.346c0.262-0.072,0.468-0.215,0.616-0.429
				c0.147-0.213,0.195-0.437,0.143-0.672l-1.196-5.438c-0.052-0.239-0.188-0.423-0.409-0.551s-0.464-0.165-0.726-0.108l-1.265,0.275
				L131.953,279.202z"/>
		</g>
	</g>
	<g>
		<g>
			<path fill="#93278F" d="M271.848,264.125l-0.213,2.262c-0.021,0.237-0.176,0.343-0.461,0.317l-2.164-0.185l-1.354,14.08
				c-0.023,0.229-0.176,0.318-0.461,0.269l-2.713-0.473c-0.102-0.018-0.195-0.066-0.279-0.146c-0.086-0.08-0.123-0.168-0.113-0.264
				l1.354-13.764l-2.133-0.173c-0.285-0.023-0.416-0.146-0.393-0.37l0.211-2.141c0.021-0.225,0.176-0.329,0.461-0.312l7.863,0.513
				C271.738,263.76,271.869,263.888,271.848,264.125z"/>
			<path fill="#93278F" d="M282.689,280.429c-0.041,0.467-0.182,0.889-0.422,1.265c-0.24,0.375-0.545,0.683-0.918,0.923
				c-0.373,0.239-0.801,0.403-1.283,0.493c-0.484,0.089-0.988,0.085-1.518-0.013l-1.158-0.215c-0.529-0.098-1.02-0.276-1.471-0.532
				c-0.451-0.257-0.836-0.562-1.154-0.913s-0.562-0.74-0.727-1.167c-0.168-0.426-0.23-0.859-0.189-1.303l1.102-11.879
				c0.041-0.447,0.18-0.862,0.42-1.243c0.238-0.382,0.545-0.707,0.918-0.977s0.801-0.475,1.283-0.616
				c0.484-0.142,0.99-0.193,1.52-0.155l1.156,0.086c0.529,0.039,1.02,0.166,1.471,0.382s0.836,0.492,1.156,0.828
				c0.316,0.336,0.559,0.723,0.727,1.158c0.166,0.437,0.229,0.891,0.188,1.363L282.689,280.429z M280.211,267.708
				c0.016-0.179-0.041-0.337-0.172-0.475c-0.133-0.138-0.299-0.216-0.502-0.233l-0.244-0.021c-0.203-0.02-0.381,0.027-0.535,0.139
				c-0.154,0.11-0.236,0.254-0.254,0.43l-1.076,11.873c-0.016,0.173,0.041,0.333,0.174,0.479c0.131,0.146,0.297,0.234,0.5,0.27
				l0.246,0.041c0.201,0.033,0.379,0.002,0.533-0.098c0.154-0.099,0.238-0.235,0.254-0.411L280.211,267.708z"/>
			<path fill="#93278F" d="M294.215,265.589c0.451,0.234,0.836,0.531,1.156,0.893c0.316,0.362,0.559,0.777,0.727,1.245
				c0.166,0.468,0.229,0.956,0.188,1.461l-0.076,0.935c-0.021,0.273-0.168,0.434-0.439,0.479l-2.852,0.633
				c-0.27,0.045-0.395-0.065-0.373-0.332l0.162-1.947c0.016-0.19-0.041-0.36-0.172-0.509c-0.133-0.147-0.299-0.232-0.502-0.252
				l-0.244-0.025c-0.203-0.021-0.381,0.029-0.535,0.147c-0.154,0.117-0.236,0.272-0.254,0.461l-1.076,12.753
				c-0.016,0.187,0.041,0.358,0.174,0.514c0.131,0.157,0.297,0.253,0.5,0.289l0.246,0.044c0.201,0.036,0.379,0.001,0.533-0.105
				s0.238-0.255,0.254-0.442l0.424-5.053l-0.854-0.125l0.271-3.232l3.994,0.521c0.283,0.038,0.414,0.192,0.393,0.465l-0.674,8.198
				c-0.041,0.5-0.182,0.951-0.422,1.356c-0.24,0.402-0.545,0.733-0.918,0.992c-0.373,0.258-0.801,0.435-1.283,0.534
				c-0.484,0.097-0.988,0.095-1.518-0.01l-1.158-0.226c-0.529-0.104-1.02-0.293-1.471-0.567c-0.451-0.273-0.836-0.6-1.154-0.978
				c-0.318-0.377-0.562-0.794-0.727-1.254c-0.168-0.457-0.23-0.923-0.189-1.399l1.102-12.779c0.041-0.482,0.18-0.927,0.42-1.336
				c0.238-0.409,0.545-0.758,0.918-1.045c0.373-0.289,0.801-0.509,1.283-0.657c0.484-0.15,0.99-0.204,1.52-0.159l1.156,0.096
				C293.273,265.218,293.764,265.356,294.215,265.589z"/>
			<path fill="#93278F" d="M306.578,285.192l-0.213,2.722c-0.021,0.286-0.176,0.399-0.459,0.34l-6.615-1.347
				c-0.285-0.058-0.416-0.223-0.393-0.497l1.6-19.928c0.021-0.278,0.176-0.406,0.461-0.38l6.613,0.626
				c0.285,0.028,0.416,0.188,0.395,0.477l-0.213,2.763c-0.021,0.29-0.176,0.417-0.461,0.384l-3.475-0.396l-0.342,4.368l3.016,0.411
				c0.285,0.039,0.418,0.203,0.395,0.49l-0.211,2.738c-0.023,0.287-0.178,0.408-0.461,0.364l-3.018-0.467l-0.488,6.173l3.475,0.648
				C306.469,284.735,306.6,284.905,306.578,285.192z"/>
			<path fill="#93278F" d="M320.189,268.485l-0.213,2.932c-0.021,0.308-0.176,0.443-0.461,0.407l-2.162-0.27l-1.355,18.367
				c-0.021,0.301-0.176,0.419-0.461,0.357l-2.713-0.577c-0.102-0.021-0.195-0.085-0.279-0.188c-0.086-0.104-0.123-0.218-0.113-0.344
				l1.355-18.051l-2.135-0.257c-0.285-0.034-0.414-0.197-0.393-0.492l0.213-2.811c0.021-0.295,0.174-0.429,0.459-0.4l7.863,0.817
				C320.08,268.009,320.211,268.178,320.189,268.485z"/>
			<path fill="#93278F" d="M332.99,269.954l-1.6,23.331c-0.023,0.322-0.176,0.45-0.459,0.386l-2.715-0.612
				c-0.283-0.063-0.414-0.252-0.393-0.569l0.682-9.729l-2.012-0.354l-0.682,9.639c-0.021,0.314-0.176,0.439-0.459,0.376l-2.713-0.6
				c-0.285-0.062-0.416-0.248-0.395-0.556l1.602-22.372c0.021-0.313,0.176-0.455,0.459-0.423l2.713,0.303
				c0.285,0.033,0.416,0.208,0.395,0.526l-0.641,9.145l2.012,0.318l0.641-9.229c0.021-0.321,0.174-0.466,0.459-0.433l2.713,0.315
				C332.883,269.448,333.012,269.629,332.99,269.954z"/>
			<path fill="#93278F" d="M343.338,292.744l-0.213,3.232c-0.021,0.34-0.176,0.475-0.459,0.407l-6.615-1.543
				c-0.283-0.065-0.416-0.262-0.393-0.59l1.6-23.776c0.021-0.333,0.176-0.482,0.461-0.447l6.613,0.82
				c0.285,0.037,0.416,0.227,0.395,0.569l-0.213,3.272c-0.021,0.344-0.176,0.494-0.461,0.452l-3.475-0.499l-0.342,5.193l3.018,0.5
				c0.283,0.048,0.416,0.242,0.393,0.582l-0.211,3.249c-0.023,0.341-0.176,0.484-0.461,0.432l-3.018-0.556l-0.488,7.347l3.475,0.752
				C343.229,292.203,343.359,292.404,343.338,292.744z"/>
			<path fill="#93278F" d="M356.689,299.226c0.039,0.374-0.074,0.528-0.338,0.463l-2.773-0.682c-0.121-0.03-0.236-0.109-0.342-0.237
				c-0.105-0.129-0.174-0.273-0.205-0.434l-1.641-9.745l-0.617,9.733l-0.006-0.383c-0.059,0.24-0.197,0.332-0.42,0.279l-2.713-0.655
				c-0.285-0.067-0.416-0.273-0.395-0.619l1.602-24.99c0.021-0.349,0.176-0.505,0.459-0.469l4.572,0.607
				c0.529,0.071,1.018,0.266,1.469,0.587s0.838,0.725,1.156,1.21c0.318,0.488,0.561,1.044,0.727,1.667
				c0.168,0.626,0.23,1.273,0.188,1.944l-0.387,6.304c-0.059,0.952-0.305,1.771-0.738,2.454c-0.432,0.683-0.977,1.165-1.631,1.447
				L356.689,299.226z M351.707,283.574l0.977,0.177c0.201,0.037,0.381-0.021,0.533-0.173c0.154-0.149,0.238-0.354,0.254-0.607
				l0.365-5.832c0.016-0.255-0.043-0.481-0.174-0.682c-0.131-0.198-0.299-0.314-0.5-0.345l-0.977-0.146L351.707,283.574z"/>
		</g>
	</g>
	<polygon fill="#D4145A" points="67,292.608 8.396,326.286 6.5,319.219 	"/>
	<polygon fill="#D4145A" points="76.518,284.872 25.98,289.979 27.717,297.71 	"/>
	<polygon fill="#D4145A" points="347.459,260.274 382.5,248.94 383.5,254.44 	"/>
	<polygon fill="#D4145A" points="355.084,264.774 379.959,267.024 379.084,273.19 	"/>
	<polygon fill="#D4145A" points="75.834,294.774 51.834,313.274 56.334,317.274 	"/>
</g>
</svg>
